<mxfile host="app.diagrams.net" agent="Mozilla/5.0 (Windows NT 10.0; Win64; x64) AppleWebKit/537.36 (KHTML, like Gecko) Chrome/127.0.0.0 Safari/537.36 OPR/113.0.0.0" version="24.7.16" pages="3">
  <diagram name="Página de Inicio" id="LYXnQb0VSoi2UjKHM5OV">
    <mxGraphModel dx="2460" dy="1367" grid="0" gridSize="10" guides="1" tooltips="1" connect="1" arrows="1" fold="1" page="0" pageScale="1" pageWidth="827" pageHeight="1169" math="0" shadow="0">
      <root>
        <mxCell id="0" />
        <mxCell id="1" parent="0" />
        <mxCell id="wAgH1Zqmq-RATGkgT6hA-1" value="IMAGEN DE FONDO &amp;nbsp;&amp;nbsp;&amp;nbsp;&amp;nbsp;&amp;nbsp;&amp;nbsp;&amp;nbsp;&amp;nbsp;&amp;nbsp;&amp;nbsp;&amp;nbsp;&amp;nbsp;&amp;nbsp;&amp;nbsp;&amp;nbsp;&amp;nbsp;&amp;nbsp;&amp;nbsp;&amp;nbsp;&amp;nbsp;&amp;nbsp;&amp;nbsp;&amp;nbsp;&amp;nbsp;&amp;nbsp;&amp;nbsp;&amp;nbsp;&amp;nbsp;&amp;nbsp;&amp;nbsp;&amp;nbsp;&amp;nbsp;&amp;nbsp;&amp;nbsp;&amp;nbsp;&amp;nbsp;&amp;nbsp;&amp;nbsp;&amp;nbsp;&amp;nbsp;&amp;nbsp;&amp;nbsp;&amp;nbsp;&amp;nbsp;&amp;nbsp;&amp;nbsp;&amp;nbsp;&amp;nbsp;&amp;nbsp;&amp;nbsp;&amp;nbsp;&amp;nbsp;&amp;nbsp;&amp;nbsp;&amp;nbsp;&amp;nbsp;&amp;nbsp;&amp;nbsp;&amp;nbsp;&amp;nbsp;&amp;nbsp;&amp;nbsp;&amp;nbsp;&amp;nbsp;&amp;nbsp;&amp;nbsp;&amp;nbsp;&amp;nbsp;&amp;nbsp;&amp;nbsp;&amp;nbsp;&amp;nbsp;&amp;nbsp;&amp;nbsp;&amp;nbsp;&amp;nbsp;&amp;nbsp;&amp;nbsp;&amp;nbsp;&amp;nbsp;&amp;nbsp;&amp;nbsp;&amp;nbsp;&amp;nbsp;&amp;nbsp;&amp;nbsp;&amp;nbsp;&amp;nbsp;&amp;nbsp;&amp;nbsp;&amp;nbsp;&amp;nbsp;&amp;nbsp;&amp;nbsp;&amp;nbsp;&amp;nbsp;&amp;nbsp;&amp;nbsp;&amp;nbsp;&amp;nbsp;&amp;nbsp;&amp;nbsp;&amp;nbsp;&amp;nbsp;&amp;nbsp;&amp;nbsp;&amp;nbsp;&amp;nbsp;&amp;nbsp;&amp;nbsp;&amp;nbsp;&amp;nbsp;&amp;nbsp;&amp;nbsp;&amp;nbsp;&amp;nbsp;&amp;nbsp;&amp;nbsp;&amp;nbsp;&amp;nbsp;&amp;nbsp;&amp;nbsp;&amp;nbsp;&amp;nbsp;&amp;nbsp;&amp;nbsp;&amp;nbsp;&amp;nbsp; " style="rounded=0;whiteSpace=wrap;html=1;fontSize=27;" parent="1" vertex="1">
          <mxGeometry x="-305" y="-185" width="1300" height="700" as="geometry" />
        </mxCell>
        <mxCell id="wAgH1Zqmq-RATGkgT6hA-2" value="LOGO" style="rounded=1;whiteSpace=wrap;html=1;fontSize=25;fillColor=#dae8fc;strokeColor=#6c8ebf;" parent="1" vertex="1">
          <mxGeometry x="667" y="-164" width="293" height="112" as="geometry" />
        </mxCell>
        <mxCell id="wAgH1Zqmq-RATGkgT6hA-4" value="&lt;div&gt;MENU&lt;/div&gt;&lt;div&gt;&lt;br&gt;&lt;/div&gt;&lt;div&gt;&lt;br&gt;&lt;/div&gt;&lt;div&gt;&lt;br&gt;&lt;/div&gt;&lt;div&gt;&lt;br&gt;&lt;/div&gt;&lt;div&gt;&lt;br&gt;&lt;/div&gt;" style="rounded=1;whiteSpace=wrap;html=1;fontSize=25;fillColor=#dae8fc;strokeColor=#6c8ebf;" parent="1" vertex="1">
          <mxGeometry x="167.5" y="61.63" width="355" height="206.75" as="geometry" />
        </mxCell>
        <mxCell id="wAgH1Zqmq-RATGkgT6hA-5" value="&lt;div&gt;ICONOS&lt;/div&gt;&lt;div&gt;&lt;br&gt;&lt;/div&gt;&lt;div&gt;Soluciones&lt;span style=&quot;white-space: pre;&quot;&gt;&#x9;&lt;/span&gt;&lt;span style=&quot;white-space: pre;&quot;&gt;&#x9;&lt;/span&gt;Proyectos&lt;span style=&quot;white-space: pre;&quot;&gt;&#x9;&lt;/span&gt;&lt;span style=&quot;white-space: pre;&quot;&gt;&#x9;&lt;/span&gt;Contacto&lt;br&gt;&lt;/div&gt;&lt;div&gt;&lt;br&gt;&lt;/div&gt;" style="rounded=1;whiteSpace=wrap;html=1;fillColor=#f8cecc;strokeColor=#b85450;" parent="1" vertex="1">
          <mxGeometry x="189.5" y="137" width="311" height="74" as="geometry" />
        </mxCell>
        <mxCell id="wAgH1Zqmq-RATGkgT6hA-7" value="&lt;font style=&quot;font-size: 25px;&quot;&gt;ICONOS REDES SOCIALES&lt;/font&gt;" style="rounded=1;whiteSpace=wrap;html=1;fillColor=#dae8fc;strokeColor=#6c8ebf;" parent="1" vertex="1">
          <mxGeometry x="232" y="359" width="226" height="127" as="geometry" />
        </mxCell>
        <mxCell id="wAgH1Zqmq-RATGkgT6hA-9" value="TITULO DE BIENVENIDA" style="rounded=1;whiteSpace=wrap;html=1;fontSize=25;fillColor=#dae8fc;strokeColor=#6c8ebf;" parent="1" vertex="1">
          <mxGeometry x="167" y="-154" width="355.5" height="102" as="geometry" />
        </mxCell>
      </root>
    </mxGraphModel>
  </diagram>
  <diagram id="MN8y9iGFKvRSuDJ7sCg5" name="Página de información">
    <mxGraphModel dx="2128" dy="1173" grid="0" gridSize="10" guides="1" tooltips="1" connect="1" arrows="1" fold="1" page="0" pageScale="1" pageWidth="827" pageHeight="1169" math="0" shadow="0">
      <root>
        <mxCell id="0" />
        <mxCell id="1" parent="0" />
        <mxCell id="H3FvBXofVZZ9FjTf3kOU-1" value="Cuerpo" style="rounded=0;whiteSpace=wrap;html=1;" vertex="1" parent="1">
          <mxGeometry x="-163" y="-311" width="728" height="458" as="geometry" />
        </mxCell>
        <mxCell id="H3FvBXofVZZ9FjTf3kOU-2" value="Cabecera" style="rounded=0;whiteSpace=wrap;html=1;fillColor=#dae8fc;strokeColor=#6c8ebf;" vertex="1" parent="1">
          <mxGeometry x="-163" y="-311" width="728" height="110" as="geometry" />
        </mxCell>
        <mxCell id="H3FvBXofVZZ9FjTf3kOU-4" value="Botón Menu" style="rounded=1;whiteSpace=wrap;html=1;fillColor=#d5e8d4;strokeColor=#82b366;" vertex="1" parent="1">
          <mxGeometry x="-140" y="-286" width="120" height="60" as="geometry" />
        </mxCell>
        <mxCell id="H3FvBXofVZZ9FjTf3kOU-5" value="Logo" style="rounded=1;whiteSpace=wrap;html=1;fillColor=#d5e8d4;strokeColor=#82b366;" vertex="1" parent="1">
          <mxGeometry x="420" y="-286" width="120" height="60" as="geometry" />
        </mxCell>
        <mxCell id="H3FvBXofVZZ9FjTf3kOU-6" value="Pie" style="rounded=0;whiteSpace=wrap;html=1;fillColor=#dae8fc;strokeColor=#6c8ebf;" vertex="1" parent="1">
          <mxGeometry x="-163" y="170" width="728" height="110" as="geometry" />
        </mxCell>
        <mxCell id="H3FvBXofVZZ9FjTf3kOU-7" value="Imagenes ayuntamiento y UE" style="rounded=1;whiteSpace=wrap;html=1;fillColor=#d5e8d4;strokeColor=#82b366;" vertex="1" parent="1">
          <mxGeometry x="-140" y="195" width="230" height="60" as="geometry" />
        </mxCell>
        <mxCell id="H3FvBXofVZZ9FjTf3kOU-8" value="Terminos y condiciones" style="rounded=1;whiteSpace=wrap;html=1;fillColor=#d5e8d4;strokeColor=#82b366;" vertex="1" parent="1">
          <mxGeometry x="310" y="195" width="230" height="60" as="geometry" />
        </mxCell>
        <mxCell id="H3FvBXofVZZ9FjTf3kOU-9" value="Menu&lt;div&gt;&lt;br&gt;&lt;/div&gt;&lt;div&gt;&lt;br&gt;&lt;/div&gt;&lt;div&gt;&lt;br&gt;&lt;/div&gt;&lt;div&gt;&lt;br&gt;&lt;/div&gt;&lt;div&gt;&lt;br&gt;&lt;/div&gt;&lt;div&gt;&lt;br&gt;&lt;/div&gt;&lt;div&gt;&lt;br&gt;&lt;/div&gt;&lt;div&gt;&lt;br&gt;&lt;/div&gt;&lt;div&gt;&lt;br&gt;&lt;/div&gt;&lt;div&gt;&lt;br&gt;&lt;/div&gt;&lt;div&gt;&lt;br&gt;&lt;/div&gt;&lt;div&gt;&lt;br&gt;&lt;/div&gt;&lt;div&gt;&lt;br&gt;&lt;/div&gt;&lt;div&gt;&lt;br&gt;&lt;/div&gt;&lt;div&gt;&lt;br&gt;&lt;/div&gt;&lt;div&gt;&lt;br&gt;&lt;/div&gt;&lt;div&gt;&lt;br&gt;&lt;/div&gt;&lt;div&gt;&lt;br&gt;&lt;/div&gt;&lt;div&gt;&lt;br&gt;&lt;/div&gt;&lt;div&gt;&lt;br&gt;&lt;/div&gt;&lt;div&gt;&lt;br&gt;&lt;/div&gt;&lt;div&gt;&lt;br&gt;&lt;/div&gt;&lt;div&gt;&lt;br&gt;&lt;/div&gt;&lt;div&gt;&lt;br&gt;&lt;/div&gt;&lt;div&gt;&lt;br&gt;&lt;/div&gt;&lt;div&gt;&lt;br&gt;&lt;/div&gt;&lt;div&gt;&lt;br&gt;&lt;/div&gt;&lt;div&gt;&lt;br&gt;&lt;/div&gt;&lt;div&gt;&lt;br&gt;&lt;/div&gt;" style="rounded=0;whiteSpace=wrap;html=1;fillColor=#dae8fc;strokeColor=#6c8ebf;" vertex="1" parent="1">
          <mxGeometry x="-439" y="-311" width="227" height="458" as="geometry" />
        </mxCell>
        <mxCell id="H3FvBXofVZZ9FjTf3kOU-10" value="Botones Menu" style="rounded=1;whiteSpace=wrap;html=1;fillColor=#d5e8d4;strokeColor=#82b366;" vertex="1" parent="1">
          <mxGeometry x="-392.25" y="-242" width="133.5" height="320" as="geometry" />
        </mxCell>
        <mxCell id="H3FvBXofVZZ9FjTf3kOU-11" value="Redes Sociales" style="rounded=1;whiteSpace=wrap;html=1;fillColor=#d5e8d4;strokeColor=#82b366;" vertex="1" parent="1">
          <mxGeometry x="-385.5" y="94" width="120" height="39" as="geometry" />
        </mxCell>
      </root>
    </mxGraphModel>
  </diagram>
  <diagram id="o4RFEQ6LP6bteld2_UvJ" name="Página de contacto">
    <mxGraphModel dx="1854" dy="682" grid="0" gridSize="10" guides="1" tooltips="1" connect="1" arrows="1" fold="1" page="0" pageScale="1" pageWidth="827" pageHeight="1169" math="0" shadow="0">
      <root>
        <mxCell id="0" />
        <mxCell id="1" parent="0" />
        <mxCell id="40PmgeKRgm0L5JLgO-v4-1" value="" style="rounded=0;whiteSpace=wrap;html=1;" parent="1" vertex="1">
          <mxGeometry x="-85" y="25" width="1300" height="700" as="geometry" />
        </mxCell>
        <mxCell id="40PmgeKRgm0L5JLgO-v4-2" value="" style="rounded=0;whiteSpace=wrap;html=1;" parent="1" vertex="1">
          <mxGeometry x="177.5" y="186" width="775" height="455" as="geometry" />
        </mxCell>
        <mxCell id="40PmgeKRgm0L5JLgO-v4-3" value="FORMULARIO DE CONTACTO" style="rounded=1;whiteSpace=wrap;html=1;fillColor=#dae8fc;strokeColor=#6c8ebf;" parent="1" vertex="1">
          <mxGeometry x="208" y="72" width="714" height="86" as="geometry" />
        </mxCell>
        <mxCell id="40PmgeKRgm0L5JLgO-v4-4" value="Nombre" style="rounded=1;whiteSpace=wrap;html=1;fillColor=#e1d5e7;strokeColor=#9673a6;" parent="1" vertex="1">
          <mxGeometry x="208" y="205" width="225" height="45" as="geometry" />
        </mxCell>
        <mxCell id="40PmgeKRgm0L5JLgO-v4-14" value="Razón por la que se pone en contacto" style="rounded=1;whiteSpace=wrap;html=1;fontSize=25;fillColor=#e1d5e7;strokeColor=#9673a6;" parent="1" vertex="1">
          <mxGeometry x="205" y="381" width="260" height="241" as="geometry" />
        </mxCell>
        <mxCell id="40PmgeKRgm0L5JLgO-v4-19" value="Botón de reiniciar" style="rounded=1;whiteSpace=wrap;html=1;fillColor=#d5e8d4;strokeColor=#82b366;" parent="1" vertex="1">
          <mxGeometry x="618" y="381" width="300" height="107" as="geometry" />
        </mxCell>
        <mxCell id="40PmgeKRgm0L5JLgO-v4-20" value="Botón de volver" style="rounded=1;whiteSpace=wrap;html=1;fillColor=#d5e8d4;strokeColor=#82b366;" parent="1" vertex="1">
          <mxGeometry x="492" y="381" width="98" height="241" as="geometry" />
        </mxCell>
        <mxCell id="kRpCXzcXFYfFzlZ7XyzE-1" value="LOGO" style="rounded=1;whiteSpace=wrap;html=1;fillColor=#dae8fc;strokeColor=#6c8ebf;" parent="1" vertex="1">
          <mxGeometry x="1003" y="42" width="188" height="79" as="geometry" />
        </mxCell>
        <mxCell id="kRpCXzcXFYfFzlZ7XyzE-2" value="&lt;div&gt;REDES SOCIALES&lt;/div&gt;" style="rounded=1;whiteSpace=wrap;html=1;fillColor=#dae8fc;strokeColor=#6c8ebf;" parent="1" vertex="1">
          <mxGeometry x="505" y="653" width="120" height="60" as="geometry" />
        </mxCell>
        <mxCell id="52TDEIPiRZPpERR83quc-2" value="Botón de enviar" style="rounded=1;whiteSpace=wrap;html=1;fillColor=#d5e8d4;strokeColor=#82b366;" vertex="1" parent="1">
          <mxGeometry x="618" y="515" width="300" height="107" as="geometry" />
        </mxCell>
        <mxCell id="52TDEIPiRZPpERR83quc-3" value="Apellidos" style="rounded=1;whiteSpace=wrap;html=1;fillColor=#e1d5e7;strokeColor=#9673a6;" vertex="1" parent="1">
          <mxGeometry x="452.5" y="205" width="225" height="45" as="geometry" />
        </mxCell>
        <mxCell id="52TDEIPiRZPpERR83quc-4" value="Nacimiento" style="rounded=1;whiteSpace=wrap;html=1;fillColor=#e1d5e7;strokeColor=#9673a6;" vertex="1" parent="1">
          <mxGeometry x="697" y="205" width="225" height="45" as="geometry" />
        </mxCell>
        <mxCell id="52TDEIPiRZPpERR83quc-13" value="DNI" style="rounded=1;whiteSpace=wrap;html=1;fillColor=#e1d5e7;strokeColor=#9673a6;" vertex="1" parent="1">
          <mxGeometry x="208" y="262" width="225" height="45" as="geometry" />
        </mxCell>
        <mxCell id="52TDEIPiRZPpERR83quc-14" value="Domicilio" style="rounded=1;whiteSpace=wrap;html=1;fillColor=#e1d5e7;strokeColor=#9673a6;" vertex="1" parent="1">
          <mxGeometry x="452.5" y="262" width="225" height="45" as="geometry" />
        </mxCell>
        <mxCell id="52TDEIPiRZPpERR83quc-15" value="Población" style="rounded=1;whiteSpace=wrap;html=1;fillColor=#e1d5e7;strokeColor=#9673a6;" vertex="1" parent="1">
          <mxGeometry x="697" y="262" width="225" height="45" as="geometry" />
        </mxCell>
        <mxCell id="52TDEIPiRZPpERR83quc-16" value="Teléfono" style="rounded=1;whiteSpace=wrap;html=1;fillColor=#e1d5e7;strokeColor=#9673a6;" vertex="1" parent="1">
          <mxGeometry x="208" y="320" width="225" height="45" as="geometry" />
        </mxCell>
        <mxCell id="52TDEIPiRZPpERR83quc-17" value="Email" style="rounded=1;whiteSpace=wrap;html=1;fillColor=#e1d5e7;strokeColor=#9673a6;" vertex="1" parent="1">
          <mxGeometry x="452.5" y="320" width="225" height="45" as="geometry" />
        </mxCell>
        <mxCell id="52TDEIPiRZPpERR83quc-18" value="Código Postal" style="rounded=1;whiteSpace=wrap;html=1;fillColor=#e1d5e7;strokeColor=#9673a6;" vertex="1" parent="1">
          <mxGeometry x="697" y="320" width="225" height="45" as="geometry" />
        </mxCell>
      </root>
    </mxGraphModel>
  </diagram>
</mxfile>
